<svg width="309" height="66" viewBox="0 0 309 66" fill="none" xmlns="http://www.w3.org/2000/svg">
<mask id="mask0" mask-type="alpha" maskUnits="userSpaceOnUse" x="0" y="0" width="309" height="66">
<rect x="0.596985" width="308" height="66" fill="white"/>
</mask>
<g mask="url(#mask0)">
<path d="M12.0923 42.8131L12.0767 43.813C12.0819 43.8131 12.0871 43.8131 12.0923 43.8131L12.0923 42.8131ZM35.9335 44.5398L35.9667 45.5393L35.9335 44.5398ZM86.867 10L86.8654 11H86.867V10ZM103.122 26.1186L102.212 26.5323C102.225 26.5617 102.24 26.5904 102.256 26.6183L103.122 26.1186ZM157.307 61.2339L157.34 60.2345C157.323 60.2339 157.306 60.2338 157.29 60.2341L157.307 61.2339ZM188.734 48.5693L188.079 47.8137C188.069 47.8224 188.059 47.8314 188.049 47.8406L188.734 48.5693ZM-52.2347 73.6437C-48.5366 69.2471 -39.7357 61.6575 -28.1766 55.2257C-16.6234 48.7972 -2.42327 43.5864 12.0767 43.813L12.1079 41.8132C-2.8685 41.5792 -17.4216 46.9526 -29.149 53.478C-40.8705 60.0001 -49.8775 67.7342 -53.7653 72.3563L-52.2347 73.6437ZM12.0923 43.8131C15.0913 43.8131 18.9537 44.3015 23.1736 44.771C27.3534 45.2359 31.8441 45.6762 35.9667 45.5393L35.9003 43.5404C31.9388 43.6719 27.5793 43.2487 23.3948 42.7832C19.2504 42.3222 15.2342 41.8131 12.0923 41.8131L12.0923 43.8131ZM35.9667 45.5393C41.9949 45.3392 56.062 41.5037 64.9482 27.8144L63.2707 26.7254C54.8179 39.747 41.4314 43.3568 35.9003 43.5404L35.9667 45.5393ZM64.9482 27.8144C73.5228 14.6053 81.7137 10.9921 86.8654 11L86.8685 9.00002C80.764 8.99068 72.0351 13.2238 63.2707 26.7254L64.9482 27.8144ZM86.867 11C89.6656 11 96.2247 13.356 102.212 26.5323L104.033 25.7049C97.8826 12.17 90.7772 9 86.867 9.00001V11ZM102.256 26.6183C105.745 32.666 112.653 41.6605 122.091 49.0959C131.531 56.5324 143.58 62.4693 157.324 62.2338L157.29 60.2341C144.158 60.4591 132.547 54.7868 123.329 47.5248C114.109 40.2616 107.363 31.4682 103.989 25.6189L102.256 26.6183ZM157.274 62.2334C163.25 62.4318 177.909 60.1149 189.419 49.298L188.049 47.8406C177.018 58.2082 162.923 60.4198 157.34 60.2345L157.274 62.2334ZM189.389 49.325C196.275 43.357 205.728 34.7798 216.822 27.6803C227.919 20.5793 240.551 15.0295 253.755 15.0295V13.0295C240.003 13.0295 226.987 18.8011 215.744 25.9957C204.499 33.1919 194.92 41.8847 188.079 47.8137L189.389 49.325ZM253.755 15.0295C267.023 15.0295 276.376 18.8663 286.945 22.8718C297.528 26.8829 309.226 31.0137 326.98 31.3637L327.02 29.3641C309.607 29.0208 298.162 24.9844 287.653 21.0016C277.13 17.0132 267.444 13.0295 253.755 13.0295V15.0295Z" fill="white"/>
<path opacity="0.16" d="M256.573 22.4876C261.266 22.4876 265.146 18.8382 265.146 14.2438C265.146 9.64944 261.266 6 256.573 6C251.881 6 248 9.64944 248 14.2438C248 18.8382 251.881 22.4876 256.573 22.4876Z" stroke="white" stroke-width="2"/>
<g filter="url(#filter0_d)">
<ellipse cx="256.574" cy="14.245" rx="4.41765" ry="4.22558" fill="white"/>
<path d="M258.991 14.245C258.991 15.3913 257.993 16.4706 256.574 16.4706C255.154 16.4706 254.156 15.3913 254.156 14.245C254.156 13.0987 255.154 12.0194 256.574 12.0194C257.993 12.0194 258.991 13.0987 258.991 14.245Z" stroke="white" stroke-width="4"/>
</g>
</g>
<defs>
<filter id="filter0_d" x="250.156" y="9.01944" width="12.8353" height="12.4512" filterUnits="userSpaceOnUse" color-interpolation-filters="sRGB">
<feFlood flood-opacity="0" result="BackgroundImageFix"/>
<feColorMatrix in="SourceAlpha" type="matrix" values="0 0 0 0 0 0 0 0 0 0 0 0 0 0 0 0 0 0 127 0"/>
<feOffset dy="1"/>
<feGaussianBlur stdDeviation="1"/>
<feColorMatrix type="matrix" values="0 0 0 0 0.215686 0 0 0 0 0.317647 0 0 0 0 1 0 0 0 0.2 0"/>
<feBlend mode="normal" in2="BackgroundImageFix" result="effect1_dropShadow"/>
<feBlend mode="normal" in="SourceGraphic" in2="effect1_dropShadow" result="shape"/>
</filter>
</defs>
</svg>
